<?xml version="1.0" encoding="utf-8"?>
<!-- Generator: Adobe Illustrator 15.0.2, SVG Export Plug-In  -->
<!DOCTYPE svg PUBLIC "-//W3C//DTD SVG 1.1//EN" "http://www.w3.org/Graphics/SVG/1.1/DTD/svg11.dtd" [
	<!ENTITY ns_flows "http://ns.adobe.com/Flows/1.0/">
]>
<svg version="1.1"
	 xmlns="http://www.w3.org/2000/svg" xmlns:xlink="http://www.w3.org/1999/xlink" xmlns:a="http://ns.adobe.com/AdobeSVGViewerExtensions/3.0/"
	 x="0px" y="0px" width="666px" height="67px" viewBox="0 0 666 67" enable-background="new 0 0 666 67" xml:space="preserve">
<defs>
</defs>
<path fill="#FFFFFF" d="M3.647,54.137c0.729,0,0.851,1.58,2.311,3.282c2.432,2.919,5.472,6.079,11.308,6.079
	c4.134,0,8.026-2.43,8.026-7.903c0-5.714-5.108-8.389-10.822-10.82c-6.688-2.919-14.105-5.35-14.105-13.984
	c0-8.146,8.877-13.74,17.51-13.74c9.24,0,12.646,5.35,12.646,8.146c0,1.337-3.526,2.311-4.864,2.311
	c-2.797,0-1.459-7.904-9.361-7.904c-4.014,0-8.877,2.188-8.877,8.512c0,5.228,4.863,7.295,9.971,9.727
	c7.052,3.404,15.076,6.932,15.076,14.105c0,8.875-8.146,14.347-17.143,14.347C7.903,66.296,0,62.526,0,58.757
	C0,56.812,2.675,54.137,3.647,54.137z"/>
<path fill="#FFFFFF" d="M40.121,22.037c0,0,5.983-3.33,7.308-5.35c2.562-3.906,3.758-10.093,3.758-10.093
	c0.244-0.365,0.608-0.608,1.095-0.608c0.608,0,1.216,0.365,1.216,1.216c0,0.365-0.73,9.241-0.73,11.187
	c0,1.094,0.244,1.215,1.34,1.215h11.55c1.46,0,1.581,0,1.094,2.188c-0.364,1.581-0.729,1.946-1.579,1.946H53.132
	c-0.365,0-0.365,2.188-0.365,5.593v23.345c0,3.77,0.244,7.54,5.838,7.54c4.74,0,8.754-1.947,9.727-1.947
	c0.365,0,0.487,1.096,0.487,1.947c0,0.606-10.335,5.713-15.321,5.713c-6.93,0-8.754-4.742-8.754-8.388
	c0.121-8.756,0.242-22.738,0.242-26.265c0-4.499-0.121-7.417-1.459-7.417h-3.039c-0.488,0-0.73-0.365-0.73-0.851
	C39.757,22.645,39.879,22.28,40.121,22.037z"/>
<path fill="#FFFFFF" d="M415.011,22.037c0,0,5.984-3.33,7.309-5.35c2.562-3.906,3.758-10.093,3.758-10.093
	c0.244-0.365,0.607-0.608,1.094-0.608c0.608,0,1.217,0.365,1.217,1.216c0,0.365-0.73,9.241-0.73,11.187
	c0,1.094,0.244,1.215,1.34,1.215h11.549c1.461,0,1.582,0,1.096,2.188c-0.365,1.581-0.73,1.946-1.581,1.946h-12.038
	c-0.365,0-0.365,2.188-0.365,5.593v23.345c0,3.77,0.244,7.54,5.838,7.54c4.74,0,8.754-1.947,9.727-1.947
	c0.365,0,0.486,1.096,0.486,1.947c0,0.606-10.334,5.713-15.32,5.713c-6.931,0-8.756-4.742-8.756-8.388
	c0.123-8.756,0.244-22.738,0.244-26.265c0-4.499-0.121-7.417-1.459-7.417h-3.039c-0.488,0-0.73-0.365-0.73-0.851
	C414.647,22.645,414.77,22.28,415.011,22.037z"/>
<path fill="#FFFFFF" d="M100.915,16.687c13.252,0,22.008,10.821,22.008,24.196c0,14.956-8.877,25.778-23.955,25.778
	c-13.01,0-22.98-10.822-22.98-24.077C75.987,28.238,85.958,16.687,100.915,16.687z M98.968,63.498
	c12.16,0,15.078-12.523,15.078-23.465c0-9.485-4.377-20.185-14.592-20.185c-11.43,0-14.834,11.065-14.834,24.439
	C84.62,53.408,89.483,63.498,98.968,63.498z"/>
<path fill="#FFFFFF" d="M129.606,20.334c0.365-0.972,0.121-0.851,1.824-0.972c1.702-0.122,9.363-0.608,12.768-0.851
	c1.824-0.122,1.58,0.122,1.58,1.337v5.107c0,1.094,1.216-0.244,1.824-0.608c3.647-2.31,8.146-6.201,15.563-6.201
	c14.104,0,16.172,9.606,16.172,21.522c0,6.688-0.608,18.847-0.608,20.671c0,1.337,0.122,1.459,1.338,1.459h3.647
	c1.458,0,1.702,0.121,1.702,1.58c0,1.096,0,1.703-1.459,1.703c-2.311,0-5.593-0.244-9.119-0.244c-3.041,0-6.688,0.244-10.336,0.244
	c-1.701,0-1.701-0.244-1.701-1.582c0-1.458,0.364-1.701,1.58-1.701h4.5c1.215,0,1.215,0,1.336-1.337
	c0.244-2.918,0.486-8.512,0.486-21.401c0-8.754-2.311-15.807-11.672-15.807c-4.863,0-8.391,2.189-10.822,3.405
	c-1.945,0.973-2.188,1.703-2.188,2.796c0,9.972-0.122,20.062-0.122,30.033c0,1.945,0,2.311,1.58,2.311h4.378
	c1.459,0,1.58,0.486,1.58,1.58c0,1.096,0,1.703-1.58,1.703c-2.311,0-6.322-0.244-9.85-0.244c-3.04,0-7.053,0.244-10.701,0.244
	c-1.58,0-1.58-0.365-1.58-1.703c0-1.093,0.244-1.58,1.461-1.58h4.742c1.215,0,1.094-0.365,1.215-2.189
	c0.365-7.174,0.607-15.806,0.607-23.589c0-4.133,0-8.268-0.242-12.037c-0.121-1.824-0.244-1.702-1.459-1.702
	c-0.365,0-6.201,0.486-6.689,0.486c-0.363,0-0.363-0.122-0.363-0.486C128.999,21.915,129.362,20.942,129.606,20.334z"/>
<path fill="#FFFFFF" d="M217.841,16.687c12.037,0,18.117,9.119,18.117,19.332c0,0.974-5.106,1.46-6.566,1.46
	c-1.336,0-26.264-0.608-27.236-0.608c-0.607,0-0.607,2.676-0.607,4.377c0,13.011,8.998,20.063,18.117,20.063
	c9.727,0,15.32-7.903,15.685-7.903c0.366,0,1.945,1.459,1.945,1.823c0,0.73-8.754,11.43-21.035,11.43
	c-14.956,0-23.224-9.728-23.224-23.955C193.036,28.116,203.128,16.687,217.841,16.687z M203.614,34.804
	c0.607,0,13.012-0.244,19.092-0.486c4.498-0.122,4.861-0.244,4.861-0.487c0-11.916-7.295-14.469-11.186-14.469
	c-8.025,0-13.74,8.39-14.227,14.469C202.155,34.56,202.642,34.804,203.614,34.804z"/>
<path fill="#FFFFFF" d="M251.372,54.137c0.73,0,0.852,1.58,2.312,3.282c2.432,2.919,5.471,6.079,11.307,6.079
	c4.135,0,8.025-2.43,8.025-7.903c0-5.714-5.107-8.389-10.82-10.82c-6.689-2.919-14.107-5.35-14.107-13.984
	c0-8.146,8.877-13.74,17.511-13.74c9.239,0,12.646,5.35,12.646,8.146c0,1.337-3.527,2.311-4.863,2.311
	c-2.798,0-1.459-7.904-9.363-7.904c-4.013,0-8.877,2.188-8.877,8.512c0,5.228,4.864,7.295,9.971,9.727
	c7.053,3.404,15.076,6.932,15.076,14.105c0,8.875-8.145,14.347-17.143,14.347c-7.418,0-15.32-3.77-15.32-7.539
	C247.726,56.812,250.4,54.137,251.372,54.137z"/>
<path fill="#FFFFFF" d="M378.538,54.137c0.73,0,0.852,1.58,2.311,3.282c2.432,2.919,5.472,6.079,11.308,6.079
	c4.134,0,8.026-2.43,8.026-7.903c0-5.714-5.107-8.389-10.822-10.82c-6.689-2.919-14.105-5.35-14.105-13.984
	c0-8.146,8.877-13.74,17.51-13.74c9.24,0,12.645,5.35,12.645,8.146c0,1.337-3.525,2.311-4.863,2.311
	c-2.797,0-1.459-7.904-9.363-7.904c-4.012,0-8.875,2.188-8.875,8.512c0,5.228,4.863,7.295,9.971,9.727
	c7.053,3.404,15.076,6.932,15.076,14.105c0,8.875-8.145,14.347-17.143,14.347c-7.418,0-15.32-3.77-15.32-7.539
	C374.892,56.812,377.565,54.137,378.538,54.137z"/>
<path fill="#FFFFFF" d="M475.769,16.687c13.252,0,22.008,10.821,22.008,24.196c0,14.956-8.877,25.778-23.953,25.778
	c-13.012,0-22.982-10.822-22.982-24.077C450.841,28.238,460.812,16.687,475.769,16.687z M473.823,63.498
	c12.158,0,15.076-12.523,15.076-23.465c0-9.485-4.377-20.185-14.59-20.185c-11.432,0-14.834,11.065-14.834,24.439
	C459.476,53.408,464.339,63.498,473.823,63.498z"/>
<path fill="#FFFFFF" d="M503.002,20.942c0.364-0.972,0.122-0.851,1.823-0.972c1.703-0.122,11.916-0.365,12.768-0.365
	c1.945,0,1.459,0,1.459,1.216c0,2.31-0.121,4.985-0.121,7.295c0,1.581,0,2.188,0.121,2.188c0.244,0,0.608-1.945,1.096-3.04
	c2.795-6.566,7.66-10.335,11.307-10.335c3.648,0,6.932,3.77,6.932,5.229c0,1.337-2.555,4.985-4.498,4.985
	c-2.798,0-4.865-3.77-7.297-3.77c-6.08,0-6.931,14.469-6.931,24.804c0,6.445,0,13.619,1.46,13.619h7.659
	c1.458,0,1.581,0.486,1.581,1.58c0,1.096,0,1.703-1.581,1.703c-2.31,0-9.362-0.244-12.888-0.244c-3.041,0-6.811,0.244-10.457,0.244
	c-1.582,0-1.582-0.365-1.582-1.703c0-1.093,0.244-1.58,1.461-1.58h5.229c0.973,0,1.094-7.904,1.094-16.658
	c0-10.7-0.486-22.495-0.852-22.495c-0.364,0-7.296,0.244-7.782,0.244c-0.364,0-0.364-0.122-0.364-0.487
	C502.638,22.037,502.759,21.551,503.002,20.942z"/>
<path fill="#FFFFFF" d="M547.792,19.848c0.488-0.973,0.365-0.852,1.824-0.973c2.311-0.122,13.131-0.608,13.74-0.608
	c0.73,0,0.852,0.122,0.852,0.729v20.671c0,6.932,0,13.74,0.365,20.671c0,1.094,0,1.459,1.215,1.459h4.377
	c1.216,0,1.338,0.486,1.338,1.58c0,1.096,0,1.703-1.338,1.703c-2.309,0-7.172-0.244-10.213-0.244c-3.039,0-8.512,0.244-10.82,0.244
	c-1.34,0-1.34-0.365-1.34-1.703c0-1.093,0.121-1.58,1.704-1.58h4.985c1.336,0,1.336-0.243,1.336-1.459
	c0.123-3.526,0.123-7.052,0.123-10.701c0-8.51-0.123-17.144-0.486-26.02c-0.122-1.825-0.365-1.946-1.582-1.946
	c-0.363,0-5.592,0.244-6.08,0.244c-0.363,0-0.484-0.122-0.484-0.486C547.308,21.064,547.308,20.821,547.792,19.848z"/>
<path fill="#FFFFFF" d="M603.431,16.687c12.039,0,18.118,9.119,18.118,19.332c0,0.974-5.106,1.46-6.567,1.46
	c-1.336,0-26.262-0.608-27.236-0.608c-0.607,0-0.607,2.676-0.607,4.377c0,13.011,8.998,20.063,18.117,20.063
	c9.727,0,15.322-7.903,15.686-7.903c0.365,0,1.945,1.459,1.945,1.823c0,0.73-8.756,11.43-21.035,11.43
	c-14.955,0-23.225-9.728-23.225-23.955C578.626,28.116,588.72,16.687,603.431,16.687z M589.204,34.804
	c0.609,0,13.012-0.244,19.092-0.486c4.498-0.122,4.863-0.244,4.863-0.487c0-11.916-7.296-14.469-11.188-14.469
	c-8.023,0-13.74,8.39-14.227,14.469C587.745,34.56,588.231,34.804,589.204,34.804z"/>
<path fill="#FFFFFF" d="M636.962,54.137c0.73,0,0.852,1.58,2.311,3.282c2.432,2.919,5.472,6.079,11.309,6.079
	c4.135,0,8.025-2.43,8.025-7.903c0-5.714-5.109-8.389-10.822-10.82c-6.688-2.919-14.105-5.35-14.105-13.984
	c0-8.146,8.877-13.74,17.51-13.74c9.242,0,12.645,5.35,12.645,8.146c0,1.337-3.525,2.311-4.861,2.311
	c-2.798,0-1.461-7.904-9.363-7.904c-4.014,0-8.877,2.188-8.877,8.512c0,5.228,4.863,7.295,9.971,9.727
	c7.052,3.404,15.077,6.932,15.077,14.105c0,8.875-8.147,14.347-17.144,14.347c-7.418,0-15.32-3.77-15.32-7.539
	C633.315,56.812,635.989,54.137,636.962,54.137z"/>
<path fill="#FFFFFF" d="M560.333,0c2.166,0,4.332,1.135,4.332,4.126c0,3.508-3.404,5.777-6.291,5.777
	c-2.168,0-4.229-1.341-4.229-4.23C554.145,1.96,557.856,0,560.333,0z"/>
<path fill="#FFFFFF" d="M305.632,42.921c0.362-0.045,0.362-0.362,0.362-0.725c0-3.172-0.045-6.299-3.941-6.299
	c-0.453,0-0.951,0.046-1.404,0.227c-1.269,0.544-1.404,1.224-1.449,3.036c0,0.272-0.046,0.771-0.317,0.952
	c-0.725,0.543-2.22,1.268-2.401,1.268c-0.227,0-0.362-0.181-0.362-0.679c0-3.716,3.941-5.937,6.887-5.937
	c4.575,0,5.935,2.356,5.935,5.937c0,2.31-0.272,8.245-0.272,9.241c0,0.408,0.182,1.359,0.997,1.359c0.182,0,1.586-1.087,1.722-1.087
	c0.181,0,0.588,0.407,0.588,0.679c0,0.182-1.947,1.541-2.944,2.221c-0.316,0.227-0.724,0.498-1.178,0.498
	c-1.631,0-1.722-2.537-1.812-2.537c-0.091,0-0.544,0.363-0.906,0.544c-0.906,0.544-3.309,1.857-5.211,1.857
	c-2.808,0-4.438-1.54-4.438-3.851C295.484,45.594,301.146,43.691,305.632,42.921z M301.6,51.484c1.994,0,4.395-1.042,4.395-1.269
	v-6.071c0-0.316-0.045-0.498-0.271-0.498c-0.137,0-1.496,0.271-2.81,0.68c-2.13,0.68-4.259,1.902-4.259,4.032
	C298.655,49.808,299.697,51.484,301.6,51.484z"/>
<path fill="#FFFFFF" d="M315.806,36.261c0.135-0.363,0.045-0.317,0.68-0.363c0.634-0.045,3.488-0.227,4.756-0.316
	c0.68-0.045,0.59,0.045,0.59,0.498v1.902c0,0.408,0.453-0.09,0.68-0.227c1.358-0.86,3.035-2.311,5.799-2.311
	c5.255,0,6.024,3.58,6.024,8.02c0,2.492-0.226,7.022-0.226,7.702c0,0.499,0.045,0.544,0.498,0.544h1.359
	c0.543,0,0.634,0.045,0.634,0.589c0,0.407,0,0.634-0.544,0.634c-0.86,0-2.084-0.09-3.398-0.09c-1.133,0-2.49,0.09-3.85,0.09
	c-0.635,0-0.635-0.09-0.635-0.589c0-0.544,0.137-0.634,0.589-0.634h1.677c0.453,0,0.453,0,0.498-0.498
	c0.091-1.088,0.182-3.172,0.182-7.975c0-3.262-0.861-5.89-4.35-5.89c-1.812,0-3.127,0.815-4.032,1.269
	c-0.725,0.362-0.815,0.635-0.815,1.043c0,3.715-0.045,7.475-0.045,11.189c0,0.725,0,0.861,0.589,0.861h1.631
	c0.544,0,0.589,0.182,0.589,0.589s0,0.634-0.589,0.634c-0.86,0-2.355-0.09-3.669-0.09c-1.133,0-2.628,0.09-3.987,0.09
	c-0.589,0-0.589-0.136-0.589-0.634c0-0.407,0.09-0.589,0.544-0.589h1.767c0.453,0,0.408-0.137,0.453-0.816
	c0.136-2.672,0.227-5.889,0.227-8.788c0-1.54,0-3.081-0.091-4.485c-0.045-0.68-0.091-0.635-0.544-0.635
	c-0.137,0-2.31,0.182-2.491,0.182c-0.136,0-0.136-0.046-0.136-0.182C315.579,36.849,315.715,36.488,315.806,36.261z"/>
<path fill="#FFFFFF" d="M348.971,35.671c2.718,0,4.575,1.178,4.666,1.178c0.272,0,0.272-0.453,0.272-0.814
	c0-4.576-0.318-12.323-0.453-12.323c-0.136,0-2.719,0.408-3.035,0.408c-0.272,0-0.272-0.045-0.182-0.68
	c0.045-0.317,0.091-0.543,0.362-0.589c2.582-0.317,5.708-0.815,5.935-0.815c0.408,0,0.453,0.09,0.453,1.042
	c0,1.54-0.271,7.384-0.271,21.43c0,1.449,0.045,3.805,0.09,5.436c0.046,1.812,0.316,2.221,1.043,2.221
	c0.362,0,0.86-0.091,1.541-0.182c0.361-0.045,0.498-0.09,0.498,0.362c0,0.634,0,0.771-0.59,0.86l-5.21,0.68
	c-0.181,0-0.271-0.181-0.271-0.407c0-0.091,0.045-1.45,0.045-1.631c0-0.453-0.045-0.589-0.68-0.181
	c-1.54,0.951-3.488,1.766-5.437,1.766c-4.031,0-7.973-2.265-7.973-8.788C339.774,39.523,343.761,35.671,348.971,35.671z
	 M349.968,51.755c1.178,0,3.941-0.68,3.941-1.495V38.934c0-0.589-2.039-2.356-4.395-2.356c-3.987,0-6.434,3.717-6.434,7.748
	C343.081,48.539,345.073,51.755,349.968,51.755z"/>
</svg>
