<?xml version="1.0" encoding="utf-8"?>
<!-- Generator: Adobe Illustrator 15.0.2, SVG Export Plug-In  -->
<!DOCTYPE svg PUBLIC "-//W3C//DTD SVG 1.1//EN" "http://www.w3.org/Graphics/SVG/1.1/DTD/svg11.dtd" [
	<!ENTITY ns_flows "http://ns.adobe.com/Flows/1.0/">
]>
<svg version="1.1"
	 xmlns="http://www.w3.org/2000/svg" xmlns:xlink="http://www.w3.org/1999/xlink" xmlns:a="http://ns.adobe.com/AdobeSVGViewerExtensions/3.0/"
	 x="0px" y="0px" width="183px" height="125px" viewBox="-19.402 -1.177 183 125" enable-background="new -19.402 -1.177 183 125"
	 xml:space="preserve">
<defs>
</defs>
<polygon fill="#CCCCCC" points="72.332,60.193 64.221,46.925 80.673,14.703 80.746,14.562 87.626,14.562 87.626,35.637 
	86.996,35.637 86.996,14.978 81.202,14.978 66.074,44.647 76.744,62.166 55.778,123.402 107.074,123.402 107.074,123.823 
	54.983,123.823 61.872,103.704 69.609,79.636 69.605,79.636 74.672,63.973 "/>
<polygon fill="#808080" points="29.25,53.632 36.083,38.998 22.231,3.455 22.17,3.294 16.376,3.294 16.376,26.545 16.907,26.545 
	16.907,3.757 21.785,3.757 34.526,36.483 25.54,55.806 43.19,123.362 0,123.362 0,123.823 43.858,123.823 38.062,101.635 
	31.545,75.08 31.55,75.084 27.286,57.8 "/>
<polygon fill="#808080" points="67.184,122.358 64.591,90.891 64.586,90.861 51.94,62.619 48.731,9.787 62.108,15.603 
	57.223,40.472 57.749,40.541 62.694,15.36 48.146,9.032 49.998,38.467 50.89,55.312 50.885,55.305 50.899,55.622 50.907,55.622 
	50.951,56.391 50.941,56.391 51.373,64.743 55.567,74.206 63.072,91.06 65.941,113.818 66.585,121.574 51.223,114.497 
	51.147,114.462 6.685,115.827 6.75,116.267 51.043,114.918 "/>
<polygon points="137.861,123.823 135.07,89.443 135.069,89.41 121.464,58.55 118.01,0.823 132.402,7.181 127.145,34.349 
	127.71,34.427 133.035,6.912 117.385,0 119.375,32.162 120.332,50.569 120.327,50.56 120.345,50.905 120.352,50.905 120.401,51.742 
	120.388,51.742 120.851,60.87 125.369,71.213 133.439,89.627 136.529,114.49 137.215,122.969 120.694,115.233 120.611,115.192 
	72.786,120.441 72.858,120.921 120.5,115.696 "/>
</svg>
