<?xml version="1.0" encoding="utf-8"?>
<!-- Generator: Adobe Illustrator 15.0.2, SVG Export Plug-In  -->
<!DOCTYPE svg PUBLIC "-//W3C//DTD SVG 1.1//EN" "http://www.w3.org/Graphics/SVG/1.1/DTD/svg11.dtd" [
	<!ENTITY ns_flows "http://ns.adobe.com/Flows/1.0/">
]>
<svg version="1.1"
	 xmlns="http://www.w3.org/2000/svg" xmlns:xlink="http://www.w3.org/1999/xlink" xmlns:a="http://ns.adobe.com/AdobeSVGViewerExtensions/3.0/"
	 x="0px" y="0px" width="800px" height="125px" viewBox="-26.719 -6.701 800 125" enable-background="new -26.719 -6.701 800 125"
	 xml:space="preserve">
<defs>
</defs>
<path fill="#FFFFFF" d="M709.229,70.045c5.415,1.305,12.031,2.006,17.146,2.006c12.838,0,19.756-5.816,19.756-14.541
	c0-18.354-28.277-11.535-28.277-22.865c0-4.514,2.605-7.725,10.229-7.725c7.32,0,9.929,1.907,9.929,11.031h5.214V24.414
	c-4.615-1.506-9.729-2.307-14.541-2.307c-13.438,0-19.655,5.617-19.655,14.239c0,17.249,28.28,10.03,28.28,22.366
	c0,5.516-3.711,8.527-11.333,8.527c-9.429,0-10.13-2.811-10.933-12.041h-5.814V70.045z M688.669,57.309
	c-1.203,6.82-5.815,9.932-11.534,9.932c-7.92,0-12.533-6.018-12.633-19.861h31.989v-5.717c0-13.839-8.724-19.555-19.153-19.555
	c-13.438,0-21.662,8.625-21.662,24.971c0,17.352,7.523,24.973,21.362,24.973c10.33,0,17.146-4.512,18.652-14.742H688.669z
	 M664.502,42.564c0.401-9.626,4.713-15.645,12.536-15.645c7.12,0,10.932,5.718,11.03,15.645H664.502z M622.172,27.823h4.914
	c3.811,0,4.514,2.308,4.514,4.913V60.82c0,3.51-1.605,5.816-6.619,5.816h-2.809v4.211h26.476v-4.211h-2.007
	c-5.014,0-6.619-2.307-6.619-5.816V22.508c-5.312,0.504-13.938,0.803-17.85,0.803V27.823z M574.356,27.823h4.911
	c3.813,0,4.516,2.308,4.516,4.913V60.82c0,3.51-1.604,5.816-6.621,5.816h-2.806v4.211h28.478v-4.211h-4.009
	c-5.014,0-6.619-2.307-6.619-5.816V44.271c0-11.936,6.921-15.547,10.628-15.547c3.613,0,5.72,2.508,6.621,7.021h5.215V22.908
	c-1.805-0.198-4.413-0.4-7.123-0.4c-7.819,0-12.33,2.808-15.942,10.13h-0.2v-10.13c-4.512,0.504-13.137,0.803-17.048,0.803V27.823z
	 M555.302,47.078c0,14.145-4.112,20.162-13.336,20.162c-9.228,0-13.339-6.018-13.339-20.162c0-14.14,4.111-20.158,13.339-20.158
	C551.189,26.92,555.302,32.938,555.302,47.078 M519.399,47.078c0,17.754,10.531,24.973,22.566,24.973
	c12.032,0,22.563-7.219,22.563-24.973c0-17.75-10.531-24.971-22.563-24.971C529.931,22.107,519.399,29.328,519.399,47.078
	 M487.812,36.146c0,5.316-0.401,18.151-0.401,23.066c0,9.027,4.213,12.838,12.537,12.838c8.825,0,13.436-4.01,13.436-14.844h-6.217
	c-0.2,7.123-2.005,9.631-5.717,9.631c-3.208,0-5.214-1.506-5.214-9.23V27.823h12.938v-4.513h-12.938V9.972h-5.817
	c-0.602,8.926-2.004,13.339-11.331,13.339v4.513h8.725V36.146z M435.665,70.045c5.413,1.305,12.034,2.006,17.15,2.006
	c12.833,0,19.755-5.816,19.755-14.541c0-18.354-28.28-11.535-28.28-22.865c0-4.514,2.605-7.725,10.229-7.725
	c7.317,0,9.929,1.907,9.929,11.031h5.213V24.414c-4.613-1.506-9.727-2.307-14.541-2.307c-13.438,0-19.656,5.617-19.656,14.239
	c0,17.249,28.281,10.03,28.281,22.366c0,5.516-3.711,8.527-11.332,8.527c-9.425,0-10.128-2.811-10.932-12.041h-5.815V70.045z
	 M373.873,70.848h25.873v-4.211h-3.41c-3.108,0-4.615-1.203-4.615-5.717V37.049c0-10.328-5.614-14.941-15.542-14.941
	c-5.817,0-11.835,1.807-15.345,7.821h-0.301v-7.421c-4.913,0.504-13.537,0.803-17.446,0.803v4.513h4.911
	c3.811,0,4.514,2.308,4.514,4.913V60.82c0,3.51-1.604,5.816-6.619,5.816h-2.806v4.211h26.473v-4.211h-2.006
	c-5.014,0-6.619-2.307-6.619-5.816V43.569c0-8.726,3.71-16.245,12.838-16.245c6.416,0,9.525,3.908,9.525,13.537v19.758
	c0,4.914-2.007,6.018-5.014,6.018h-4.411V70.848z M256.522,70.045c5.417,1.305,12.037,2.006,17.15,2.006
	c12.835,0,19.754-5.816,19.754-14.541c0-18.354-28.279-11.535-28.279-22.865c0-4.514,2.608-7.725,10.229-7.725
	c7.323,0,9.927,1.907,9.927,11.031h5.215V24.414c-4.61-1.506-9.725-2.307-14.542-2.307c-13.437,0-19.651,5.617-19.651,14.239
	c0,17.249,28.277,10.03,28.277,22.366c0,5.516-3.71,8.527-11.33,8.527c-9.427,0-10.129-2.811-10.933-12.041h-5.817V70.045z
	 M235.966,57.309c-1.203,6.82-5.817,9.932-11.531,9.932c-7.927,0-12.538-6.018-12.64-19.861h31.993v-5.717
	c0-13.839-8.725-19.555-19.154-19.555c-13.44,0-21.663,8.625-21.663,24.971c0,17.352,7.522,24.973,21.362,24.973
	c10.329,0,17.149-4.512,18.651-14.742H235.966z M211.795,42.564c0.404-9.626,4.713-15.645,12.538-15.645
	c7.119,0,10.931,5.718,11.03,15.645H211.795z M168.478,70.848h25.873v-4.211h-3.41c-3.107,0-4.616-1.203-4.616-5.717V37.049
	c0-10.328-5.613-14.941-15.541-14.941c-5.817,0-11.834,1.807-15.344,7.821h-0.302v-7.421c-4.912,0.504-13.538,0.803-17.449,0.803
	v4.513h4.913c3.812,0,4.516,2.308,4.516,4.913V60.82c0,3.51-1.606,5.816-6.62,5.816h-2.809v4.211h26.476v-4.211h-2.006
	c-5.014,0-6.619-2.307-6.619-5.816V43.569c0-8.726,3.711-16.245,12.837-16.245c6.418,0,9.527,3.908,9.527,13.537v19.758
	c0,4.914-2.007,6.018-5.017,6.018h-4.409V70.848z M119.838,47.078c0,14.145-4.11,20.162-13.338,20.162
	c-9.225,0-13.335-6.018-13.335-20.162c0-14.14,4.11-20.158,13.335-20.158C115.728,26.92,119.838,32.938,119.838,47.078
	 M83.938,47.078c0,17.754,10.528,24.973,22.562,24.973c12.035,0,22.563-7.219,22.563-24.973c0-17.75-10.528-24.971-22.563-24.971
	C94.466,22.107,83.938,29.328,83.938,47.078 M52.347,36.146c0,5.316-0.399,18.151-0.399,23.066c0,9.027,4.212,12.838,12.535,12.838
	c8.826,0,13.438-4.01,13.438-14.844h-6.215c-0.204,7.123-2.009,9.631-5.722,9.631c-3.205,0-5.212-1.506-5.212-9.23V27.823h12.936
	v-4.513H60.772V9.972h-5.817c-0.599,8.926-2.006,13.339-11.333,13.339v4.513h8.725V36.146z M0.201,70.045
	c5.416,1.305,12.036,2.006,17.148,2.006c12.834,0,19.755-5.816,19.755-14.541c0-18.354-28.279-11.535-28.279-22.865
	c0-4.514,2.606-7.725,10.229-7.725c7.32,0,9.929,1.907,9.929,11.031h5.215V24.414c-4.613-1.506-9.728-2.307-14.539-2.307
	C6.217,22.107,0,27.725,0,36.347c0,17.249,28.283,10.03,28.283,22.366c0,5.516-3.715,8.527-11.334,8.527
	c-9.426,0-10.129-2.811-10.932-12.041H0.201V70.045z"/>
<path fill="#FFFFFF" d="M628.626,6.485c0,4.128,2.162,6.487,5.8,6.487c3.635,0,5.799-2.359,5.799-6.487
	c0-4.126-2.164-6.485-5.799-6.485C630.788,0,628.626,2.359,628.626,6.485"/>
<path fill="#FFFFFF" d="M682.348,103.629c0-1.504-0.898-2.672-2.014-3.189c-1.877-0.844-4.382-0.463-6.264-1.279
	c-1.144-0.49-1.825-1.197-1.825-2.504c0-1.74,1.77-3.098,4.221-3.098c1.417,0,2.86,0.486,3.843,1.439v2.424h1.468v-5.033h-1.468
	v0.814c-1.063-0.762-2.506-1.141-3.923-1.141c-3.895,0-5.604,2.662-5.604,4.949c0,2.584,2.118,3.453,2.608,3.672
	c2.206,0.955,5.146,0.191,6.944,1.688c0.381,0.355,0.518,0.93,0.518,1.502c0,1.773-1.659,2.918-4.494,2.918
	c-1.713,0-3.458-0.492-4.793-1.58v-2.148h-1.492v4.895h1.492V106.9c1.69,1.168,3.786,1.385,5.04,1.385
	C679.656,108.285,682.348,106.818,682.348,103.629 M662.885,96.719c0,2.994-3.051,3.131-4.685,3.131h-2.725v-5.967h3.867
	c1.198,0,2.532,0.111,3.133,1.281C662.721,95.627,662.885,96.145,662.885,96.719 M666.473,107.957v-1.49h-2.748
	c-0.896-1.502-2.472-3.844-3.536-5.178c1.771-0.301,4.162-1.439,4.162-4.627c0-2.342-1.276-4.273-4.517-4.273h-7.977v1.494h2.153
	v12.584h-2.153v1.49h5.771v-1.49h-2.153v-5.123h3.079c1.036,1.307,3.377,4.74,4.411,6.613H666.473z M647.963,107.957v-5.195h-1.494
	v3.705h-8.034v-5.533h4.359v1.99h1.491v-5.5h-1.491v2.018h-4.359v-5.559h7.87v3.705h1.496v-5.199h-13.038v1.494h2.204v12.584h-2.15
	v1.49H647.963z M631.246,93.883v-1.494h-6.476v1.494h2.912v12.035l-7.759-13.529h-4.245v1.494h2.204v12.584h-2.177v1.49h6.613v-1.49
	h-2.941V94.51l7.815,13.447h1.986V93.883H631.246z M613.089,102.324v-1.494h-7.021v1.494h4.14v3.568
	c-1.745,0.574-2.723,0.898-4.223,0.898c-4.408,0-6.207-3.133-6.207-6.561c0-4.795,3.021-6.672,5.719-6.672
	c1.851,0,3.512,0.951,4.711,2.262v2.041h1.494v-5.799h-1.494v1.793c-1.308-1.113-3.158-1.793-5.01-1.793
	c-4.031,0-6.914,3.701-6.914,8.141c0,3.838,2.176,8.082,7.729,8.082c1.99,0,3.977-0.543,5.689-1.25v-4.711H613.089z
	 M593.271,107.957v-1.49h-4.437V93.883h4.437v-1.494h-10.396v1.494h4.465v12.584h-4.465v1.49H593.271z M576.719,103.629
	c0-1.504-0.895-2.672-2.01-3.189c-1.881-0.844-4.385-0.463-6.268-1.279c-1.143-0.49-1.824-1.197-1.824-2.504
	c0-1.74,1.772-3.098,4.222-3.098c1.418,0,2.86,0.486,3.841,1.439v2.424h1.468v-5.033h-1.468v0.814
	c-1.062-0.762-2.505-1.141-3.921-1.141c-3.894,0-5.606,2.662-5.606,4.949c0,2.584,2.12,3.453,2.609,3.672
	c2.208,0.955,5.147,0.191,6.947,1.688c0.38,0.355,0.516,0.93,0.516,1.502c0,1.773-1.661,2.918-4.492,2.918
	c-1.718,0-3.46-0.492-4.794-1.58v-2.148h-1.494v4.895h1.494V106.9c1.688,1.168,3.785,1.385,5.038,1.385
	C574.025,108.285,576.719,106.818,576.719,103.629 M559.759,107.957v-5.195h-1.493v3.705h-8.037v-5.533h4.359v1.99h1.494v-5.5
	h-1.494v2.018h-4.359v-5.559h7.874v3.705h1.493v-5.199H546.56v1.494h2.203v12.584h-2.149v1.49H559.759z M541.33,100.039
	c0,1.551-0.354,3.104-1.088,4.33c-1.035,1.715-3.08,2.098-5.094,2.098h-2.992V93.883h2.694c2.395,0,3.483,0.082,4.847,1.254
	C540.568,95.898,541.33,97.67,541.33,100.039 M542.824,99.82c0-4.467-2.12-6.615-4.98-7.24c-0.815-0.162-1.713-0.191-2.695-0.191
	h-6.585v1.494h2.123v12.584h-2.123v1.49h5.824c1.197,0,2.341-0.051,3.429-0.244C540.704,107.197,542.824,104.805,542.824,99.82
	 M510.868,105.402c-0.654,0.6-1.445,1.389-2.942,1.389c-1.361,0-2.669-0.955-2.669-2.779c0-1.879,1.279-2.857,2.314-3.318
	L510.868,105.402z M516.664,107.957v-1.49h-3.373l-0.682-1.01c0.737-1.008,1.198-2.236,1.444-3.379h2.146v-1.467h-3.291
	c0,1.141-0.407,2.584-1.146,3.646l-3.867-5.5c-0.107-0.135-0.98-1.252-0.98-2.312c0-0.738,0.793-1.689,2.343-1.689
	c1.062,0,2.099,0.463,2.916,1.062l0.543-1.281c-1.06-0.732-2.314-1.25-3.704-1.25c-2.23,0-3.588,1.387-3.588,2.938
	c0,1.037,0.486,1.963,1.11,2.916c0,0,0.191,0.299,0.301,0.465c-2.913,1.576-3.074,3.889-3.074,4.734
	c0,1.578,1.005,3.945,3.919,3.945c1.494,0,2.967-0.596,3.977-1.686l0.951,1.357H516.664z M487.972,103.629
	c0-1.504-0.897-2.672-2.013-3.189c-1.879-0.844-4.385-0.463-6.264-1.279c-1.146-0.49-1.825-1.197-1.825-2.504
	c0-1.74,1.77-3.098,4.222-3.098c1.416,0,2.857,0.486,3.84,1.439v2.424h1.465v-5.033h-1.465v0.814
	c-1.062-0.762-2.505-1.141-3.921-1.141c-3.896,0-5.607,2.662-5.607,4.949c0,2.584,2.121,3.453,2.611,3.672
	c2.204,0.955,5.146,0.191,6.944,1.688c0.383,0.355,0.517,0.93,0.517,1.502c0,1.773-1.66,2.918-4.492,2.918
	c-1.717,0-3.459-0.492-4.795-1.58v-2.148h-1.491v4.895h1.491V106.9c1.689,1.168,3.786,1.385,5.039,1.385
	C485.277,108.285,487.972,106.818,487.972,103.629 M471.609,97.861v-5.473h-14.018v5.473h1.493v-3.979h4.769v12.584h-3.353v1.49
	h8.198v-1.49h-3.352V93.883h4.768v3.979H471.609z M454.047,106.301l-0.65-1.279c-1.439,1.062-3.266,1.797-5.115,1.797
	c-3.435,0-6.074-2.504-6.074-6.809c0-5.037,3.73-6.479,5.772-6.479c1.745,0,3.35,0.844,4.549,2.123v2.207h1.468v-5.799h-1.468v1.658
	l-0.814-0.518c-1.146-0.732-2.481-1.141-3.926-1.141c-4.276,0-7.102,3.645-7.102,7.811c0,4.496,2.472,8.439,7.456,8.439
	C450.295,108.312,452.393,107.525,454.047,106.301 M436.162,107.957v-5.195h-1.493v3.705h-8.034v-5.533h4.358v1.99h1.497v-5.5
	h-1.497v2.018h-4.358v-5.559h7.871v3.705h1.495v-5.199h-13.038v1.494h2.206v12.584h-2.153v1.49H436.162z M419.337,97.861v-5.473
	h-14.013v5.473h1.491v-3.979h4.767v12.584h-3.351v1.49h8.196v-1.49h-3.351V93.883h4.767v3.979H419.337z M399.983,107.957v-1.49
	h-4.438V93.883h4.438v-1.494h-10.396v1.494h4.464v12.584h-4.464v1.49H399.983z M384.684,107.957v-1.49h-2.123V93.883h2.123v-1.494
	h-5.714v1.494h2.122v5.693h-7.461v-5.693h2.152v-1.494h-5.771v1.494h2.153v12.584h-2.153v1.49h5.771v-1.49h-2.152v-5.396h7.461
	v5.396h-2.122v1.49H384.684z M366.936,106.301l-0.654-1.279c-1.439,1.062-3.266,1.797-5.116,1.797c-3.433,0-6.071-2.504-6.071-6.809
	c0-5.037,3.73-6.479,5.771-6.479c1.743,0,3.349,0.844,4.549,2.123v2.207h1.465v-5.799h-1.465v1.658l-0.818-0.518
	c-1.145-0.732-2.479-1.141-3.92-1.141c-4.277,0-7.104,3.645-7.104,7.811c0,4.496,2.475,8.439,7.46,8.439
	C363.18,108.312,365.276,107.525,366.936,106.301 M346.547,96.719c0,2.994-3.05,3.131-4.686,3.131h-2.722v-5.967h3.866
	c1.198,0,2.532,0.111,3.133,1.281C346.383,95.627,346.547,96.145,346.547,96.719 M350.137,107.957v-1.49h-2.747
	c-0.896-1.502-2.479-3.844-3.54-5.178c1.772-0.301,4.162-1.439,4.162-4.627c0-2.342-1.274-4.273-4.515-4.273h-7.975v1.494h2.15
	v12.584h-2.15v1.49h5.767v-1.49h-2.149v-5.123h3.078c1.035,1.307,3.374,4.74,4.409,6.613H350.137z M328.497,101.865h-6.673
	l3.242-8.418L328.497,101.865z M333.342,107.957v-1.49h-1.472l-5.661-14.078h-6.669v1.494h3.891l-4.981,12.584h-1.686v1.49h5.77
	v-1.49h-2.478l1.169-3.109h7.87l1.227,3.109h-2.667v1.49H333.342z M297.545,96.719c0,2.994-3.051,3.131-4.684,3.131h-2.727v-5.967
	h3.867c1.199,0,2.534,0.111,3.133,1.281C297.382,95.627,297.545,96.145,297.545,96.719 M301.134,107.957v-1.49h-2.748
	c-0.895-1.502-2.476-3.844-3.539-5.178c1.771-0.301,4.164-1.439,4.164-4.627c0-2.342-1.275-4.273-4.517-4.273h-7.976v1.494h2.152
	v12.584h-2.152v1.49h5.771v-1.49h-2.154v-5.123h3.079c1.035,1.307,3.378,4.74,4.412,6.613H301.134z M282.35,107.957v-5.195h-1.496
	v3.705h-8.032v-5.533h4.36v1.99h1.493v-5.5h-1.493v2.018h-4.36v-5.559h7.871v3.705h1.494v-5.199h-13.038v1.494h2.205v12.584h-2.149
	v1.49H282.35z M265.307,107.957v-6.992h-1.494v5.502h-7.788V93.883h3.403v-1.494h-7.783v1.494h2.887v12.584h-2.887v1.49H265.307z
	 M247.887,107.957v-6.992h-1.495v5.502h-7.788V93.883h3.403v-1.494h-7.784v1.494h2.885v12.584h-2.885v1.49H247.887z
	 M230.082,107.957v-5.195h-1.494v3.705h-8.033v-5.533h4.358v1.99h1.493v-5.5h-1.493v2.018h-4.358v-5.559h7.871v3.705h1.492v-5.199
	h-13.036v1.494h2.205v12.584h-2.15v1.49H230.082z M212.903,107.957v-1.49h-2.122V93.883h2.122v-1.494h-5.715v1.494h2.124v5.693
	h-7.461v-5.693h2.15v-1.494h-5.771v1.494h2.151v12.584h-2.151v1.49h5.771v-1.49h-2.15v-5.396h7.461v5.396h-2.124v1.49H212.903z
	 M178.165,103.629c0-1.504-0.897-2.672-2.009-3.189c-1.88-0.844-4.387-0.463-6.265-1.279c-1.146-0.49-1.827-1.197-1.827-2.504
	c0-1.74,1.772-3.098,4.224-3.098c1.413,0,2.86,0.486,3.839,1.439v2.424h1.467v-5.033h-1.467v0.814
	c-1.061-0.762-2.507-1.141-3.921-1.141c-3.895,0-5.607,2.662-5.607,4.949c0,2.584,2.118,3.453,2.611,3.672
	c2.204,0.955,5.148,0.191,6.946,1.688c0.377,0.355,0.517,0.93,0.517,1.502c0,1.773-1.663,2.918-4.494,2.918
	c-1.716,0-3.462-0.492-4.794-1.58v-2.148h-1.493v4.895h1.493V106.9c1.689,1.168,3.786,1.385,5.037,1.385
	C175.474,108.285,178.165,106.818,178.165,103.629 M158.622,101.865h-6.671l3.24-8.418L158.622,101.865z M163.466,107.957v-1.49
	h-1.469l-5.661-14.078h-6.671v1.494h3.893l-4.98,12.584h-1.688v1.49h5.769v-1.49h-2.479l1.172-3.109h7.871l1.222,3.109h-2.666v1.49
	H163.466z M144.327,107.957v-5.195h-1.494v3.705h-8.035v-5.533h4.361v1.99h1.491v-5.5h-1.491v2.018h-4.361v-5.559h7.872v3.705h1.494
	v-5.199h-13.038v1.494h2.204v12.584h-2.15v1.49H144.327z M124.4,96.719c0,2.994-3.049,3.131-4.682,3.131h-2.724v-5.967h3.868
	c1.198,0,2.532,0.111,3.13,1.281C124.237,95.627,124.4,96.145,124.4,96.719 M127.993,107.957v-1.49h-2.747
	c-0.898-1.502-2.479-3.844-3.54-5.178c1.77-0.301,4.164-1.439,4.164-4.627c0-2.342-1.277-4.273-4.519-4.273h-7.975v1.494h2.149
	v12.584h-2.149v1.49h5.771v-1.49h-2.152v-5.123h3.076c1.037,1.307,3.378,4.74,4.411,6.613H127.993z M108.478,100.039
	c0,1.551-0.355,3.104-1.093,4.33c-1.035,1.715-3.075,2.098-5.091,2.098h-2.995V93.883h2.696c2.396,0,3.485,0.082,4.848,1.254
	C107.712,95.898,108.478,97.67,108.478,100.039 M109.972,99.82c0-4.467-2.122-6.615-4.981-7.24
	c-0.816-0.162-1.715-0.191-2.696-0.191h-6.583v1.494h2.122v12.584h-2.122v1.49h5.822c1.197,0,2.342-0.051,3.432-0.244
	C107.85,107.197,109.972,104.805,109.972,99.82 M93.035,93.883v-1.494h-6.474v1.494h2.912v12.035l-7.76-13.529h-4.247v1.494h2.208
	v12.584h-2.178v1.49h6.615v-1.49h-2.944V94.51l7.816,13.447h1.984V93.883H93.035z M71.237,101.865h-6.677l3.243-8.418
	L71.237,101.865z M76.078,107.957v-1.49h-1.47l-5.661-14.078h-6.671v1.494h3.892l-4.981,12.584H59.5v1.49h5.771v-1.49h-2.479
	l1.169-3.109h7.87l1.227,3.109h-2.667v1.49H76.078z"/>
<path fill="#FFFFFF" d="M329.046,35.48l-8.429-17.958c-1.305-2.708-1.707-3.612-1.707-4.313c0-2.007,1.305-2.809,5.621-2.809
	c3.511,0,4.613,1.404,5.315,5.117l3.712,19.963H329.046z"/>
</svg>
