<?xml version="1.0" encoding="utf-8"?>
<!-- Generator: Adobe Illustrator 15.0.2, SVG Export Plug-In  -->
<!DOCTYPE svg PUBLIC "-//W3C//DTD SVG 1.1//EN" "http://www.w3.org/Graphics/SVG/1.1/DTD/svg11.dtd" [
	<!ENTITY ns_flows "http://ns.adobe.com/Flows/1.0/">
]>
<svg version="1.1"
	 xmlns="http://www.w3.org/2000/svg" xmlns:xlink="http://www.w3.org/1999/xlink" xmlns:a="http://ns.adobe.com/AdobeSVGViewerExtensions/3.0/"
	 x="0px" y="0px" width="800px" height="125px" viewBox="-4.718 -2.712 800 125" enable-background="new -4.718 -2.712 800 125"
	 xml:space="preserve">
<defs>
</defs>
<path fill="#FFFFFF" stroke="#FFFFFF" stroke-width="0.3" stroke-miterlimit="10" d="M86.232,94.008h1.502l5.528,14.098h-1.441
	l-1.718-4.384h-6.417l-1.698,4.384h-1.441L86.232,94.008z M84.102,102.577h5.547l-2.724-7.227L84.102,102.577z"/>
<path fill="#FFFFFF" stroke="#FFFFFF" stroke-width="0.3" stroke-miterlimit="10" d="M99.271,94.008h1.5l8.214,11.926h0.04V94.008
	h1.343v14.098h-1.5l-8.215-11.926h-0.04v11.926h-1.342V94.008z"/>
<path fill="#FFFFFF" stroke="#FFFFFF" stroke-width="0.3" stroke-miterlimit="10" d="M117.539,94.008h4.877
	c4.245,0.099,6.477,2.429,6.477,7.049s-2.231,6.95-6.477,7.049h-4.877V94.008z M118.882,106.96h2.862
	c4.048,0.021,5.806-1.698,5.806-5.903c0-4.206-1.758-5.924-5.806-5.904h-2.862V106.96z"/>
<path fill="#FFFFFF" stroke="#FFFFFF" stroke-width="0.3" stroke-miterlimit="10" d="M135.808,94.008h6.456
	c2.33,0,4.285,1.125,4.285,3.672c0,1.777-0.929,3.238-2.745,3.594v0.04c1.837,0.236,2.37,1.5,2.469,3.179
	c0.058,0.968,0.058,2.902,0.651,3.613h-1.48c-0.336-0.553-0.336-1.6-0.377-2.191c-0.117-1.975-0.275-4.166-2.822-4.067h-5.094v6.259
	h-1.343V94.008z M137.15,100.701h5.015c1.639,0,3.041-1.026,3.041-2.744s-1.026-2.805-3.041-2.805h-5.015V100.701z"/>
<path fill="#FFFFFF" stroke="#FFFFFF" stroke-width="0.3" stroke-miterlimit="10" d="M153.721,94.008h9.734v1.145h-8.392v5.095
	h7.858v1.146h-7.858v5.567h8.49v1.146h-9.833V94.008z"/>
<path fill="#FFFFFF" stroke="#FFFFFF" stroke-width="0.3" stroke-miterlimit="10" d="M173.903,94.008h1.501l5.527,14.098h-1.44
	l-1.718-4.384h-6.417l-1.698,4.384h-1.441L173.903,94.008z M171.771,102.577h5.547l-2.724-7.227L171.771,102.577z"/>
<path fill="#FFFFFF" stroke="#FFFFFF" stroke-width="0.3" stroke-miterlimit="10" d="M187.592,103.466
	c-0.059,2.902,2.033,3.791,4.601,3.791c1.48,0,3.731-0.81,3.731-2.863c0-1.6-1.6-2.231-2.902-2.547l-3.14-0.771
	c-1.658-0.414-3.179-1.204-3.179-3.396c0-1.382,0.889-3.968,4.857-3.968c2.783,0,5.232,1.5,5.212,4.383h-1.342
	c-0.079-2.152-1.856-3.238-3.851-3.238c-1.836,0-3.534,0.711-3.534,2.804c0,1.323,0.987,1.876,2.132,2.152l3.436,0.85
	c1.995,0.532,3.653,1.401,3.653,3.712c0,0.967-0.396,4.027-5.392,4.027c-3.336,0-5.784-1.5-5.626-4.936H187.592z"/>
<path fill="#FFFFFF" stroke="#FFFFFF" stroke-width="0.3" stroke-miterlimit="10" d="M214.372,94.008h1.343v6.121h8.371v-6.121
	h1.342v14.098h-1.342v-6.832h-8.371v6.832h-1.343V94.008z"/>
<path fill="#FFFFFF" stroke="#FFFFFF" stroke-width="0.3" stroke-miterlimit="10" d="M233.016,94.008h9.734v1.145h-8.391v5.095
	h7.858v1.146h-7.858v5.567h8.49v1.146h-9.834V94.008z"/>
<path fill="#FFFFFF" stroke="#FFFFFF" stroke-width="0.3" stroke-miterlimit="10" d="M249.074,94.008h1.342v12.952h7.896v1.146
	h-9.238V94.008z"/>
<path fill="#FFFFFF" stroke="#FFFFFF" stroke-width="0.3" stroke-miterlimit="10" d="M264.023,94.008h1.344v12.952h7.896v1.146
	h-9.24V94.008z"/>
<path fill="#FFFFFF" stroke="#FFFFFF" stroke-width="0.3" stroke-miterlimit="10" d="M279.369,94.008h9.734v1.145h-8.393v5.095
	h7.859v1.146h-7.859v5.567h8.49v1.146h-9.832V94.008z"/>
<path fill="#FFFFFF" stroke="#FFFFFF" stroke-width="0.3" stroke-miterlimit="10" d="M295.821,94.008h6.456
	c2.33,0,4.285,1.125,4.285,3.672c0,1.777-0.929,3.238-2.746,3.594v0.04c1.838,0.236,2.371,1.5,2.469,3.179
	c0.059,0.968,0.059,2.902,0.652,3.613h-1.48c-0.336-0.553-0.336-1.6-0.376-2.191c-0.118-1.975-0.276-4.166-2.823-4.067h-5.094v6.259
	h-1.343V94.008z M297.164,100.701h5.015c1.638,0,3.04-1.026,3.04-2.744s-1.025-2.805-3.04-2.805h-5.015V100.701z"/>
<path fill="#FFFFFF" stroke="#FFFFFF" stroke-width="0.3" stroke-miterlimit="10" d="M329.67,94.008h1.501l5.528,14.098h-1.441
	l-1.718-4.384h-6.417l-1.697,4.384h-1.442L329.67,94.008z M327.538,102.577h5.548l-2.725-7.227L327.538,102.577z"/>
<path fill="#FFFFFF" stroke="#FFFFFF" stroke-width="0.3" stroke-miterlimit="10" d="M342.727,94.008h6.456
	c2.329,0,4.284,1.125,4.284,3.672c0,1.777-0.928,3.238-2.744,3.594v0.04c1.837,0.236,2.369,1.5,2.469,3.179
	c0.059,0.968,0.059,2.902,0.651,3.613h-1.481c-0.336-0.553-0.336-1.6-0.375-2.191c-0.118-1.975-0.276-4.166-2.824-4.067h-5.094
	v6.259h-1.342V94.008z M344.068,100.701h5.016c1.639,0,3.041-1.026,3.041-2.744s-1.027-2.805-3.041-2.805h-5.016V100.701z"/>
<path fill="#FFFFFF" stroke="#FFFFFF" stroke-width="0.3" stroke-miterlimit="10" d="M370.947,98.272
	c-0.475-2.172-2.271-3.416-4.325-3.416c-3.731,0-5.312,3.12-5.312,6.2s1.58,6.2,5.312,6.2c2.606,0,4.265-2.015,4.521-4.522h1.343
	c-0.375,3.456-2.566,5.667-5.864,5.667c-4.442,0-6.655-3.494-6.655-7.345s2.213-7.345,6.655-7.345c2.665,0,5.312,1.599,5.667,4.561
	H370.947z"/>
<path fill="#FFFFFF" stroke="#FFFFFF" stroke-width="0.3" stroke-miterlimit="10" d="M379.284,94.008h1.343v6.121h8.371v-6.121
	h1.342v14.098h-1.342v-6.832h-8.371v6.832h-1.343V94.008z"/>
<path fill="#FFFFFF" stroke="#FFFFFF" stroke-width="0.3" stroke-miterlimit="10" d="M398.025,94.008h1.344v14.098h-1.344V94.008z"
	/>
<path fill="#FFFFFF" stroke="#FFFFFF" stroke-width="0.3" stroke-miterlimit="10" d="M405.531,94.008h11.176v1.145h-4.917v12.953
	h-1.343V95.152h-4.916V94.008z"/>
<path fill="#FFFFFF" stroke="#FFFFFF" stroke-width="0.3" stroke-miterlimit="10" d="M422.773,94.008h9.734v1.145h-8.391v5.095
	h7.857v1.146h-7.857v5.567h8.488v1.146h-9.832V94.008z"/>
<path fill="#FFFFFF" stroke="#FFFFFF" stroke-width="0.3" stroke-miterlimit="10" d="M449.533,98.272
	c-0.475-2.172-2.271-3.416-4.326-3.416c-3.73,0-5.311,3.12-5.311,6.2s1.58,6.2,5.311,6.2c2.607,0,4.266-2.015,4.521-4.522h1.344
	c-0.375,3.456-2.566,5.667-5.865,5.667c-4.441,0-6.653-3.494-6.653-7.345s2.212-7.345,6.653-7.345c2.667,0,5.312,1.599,5.668,4.561
	H449.533z"/>
<path fill="#FFFFFF" stroke="#FFFFFF" stroke-width="0.3" stroke-miterlimit="10" d="M456.348,94.008h11.177v1.145h-4.917v12.953
	h-1.344V95.152h-4.916V94.008z"/>
<path fill="#FFFFFF" stroke="#FFFFFF" stroke-width="0.3" stroke-miterlimit="10" d="M474.223,103.466
	c-0.061,2.902,2.033,3.791,4.602,3.791c1.479,0,3.73-0.81,3.73-2.863c0-1.6-1.6-2.231-2.902-2.547l-3.141-0.771
	c-1.658-0.414-3.178-1.204-3.178-3.396c0-1.382,0.889-3.968,4.857-3.968c2.784,0,5.232,1.5,5.212,4.383h-1.343
	c-0.078-2.152-1.855-3.238-3.85-3.238c-1.836,0-3.535,0.711-3.535,2.804c0,1.323,0.988,1.876,2.133,2.152l3.436,0.85
	c1.996,0.532,3.652,1.401,3.652,3.712c0,0.967-0.395,4.027-5.39,4.027c-3.337,0-5.786-1.5-5.628-4.936H474.223z"/>
<path fill="#FFFFFF" stroke="#FFFFFF" stroke-width="0.3" stroke-miterlimit="10" d="M505.998,106.27
	c-1.027,1.283-2.488,2.132-4.146,2.132c-2.429,0-4.265-1.401-4.265-3.948c0-2.015,1.875-3.337,3.455-4.187
	c-0.771-1.007-1.737-2.033-1.737-3.396c0-1.719,1.401-2.863,3.119-2.863c1.719,0,3.119,1.145,3.119,2.863
	c0,1.757-1.361,2.764-2.764,3.652l3.08,3.712c0.336-0.691,0.416-1.303,0.416-2.369h1.243c0,0.79-0.179,2.172-0.83,3.376l2.37,2.863
	h-1.561L505.998,106.27z M501.713,101.076c-1.344,0.73-2.883,1.797-2.883,3.495c0,1.658,1.461,2.784,3.061,2.784
	c1.402,0,2.547-0.889,3.337-2.015L501.713,101.076z M500.547,96.871c0,0.986,0.969,2.093,1.58,2.843
	c0.988-0.612,2.172-1.48,2.172-2.843c0-1.165-0.848-1.817-1.875-1.817S500.547,95.706,500.547,96.871z"/>
<path fill="#FFFFFF" stroke="#FFFFFF" stroke-width="0.3" stroke-miterlimit="10" d="M521.326,94.008h4.877
	c4.246,0.099,6.477,2.429,6.477,7.049s-2.23,6.95-6.477,7.049h-4.877V94.008z M522.669,106.96h2.862
	c4.047,0.021,5.806-1.698,5.806-5.903c0-4.206-1.759-5.924-5.806-5.904h-2.862V106.96z"/>
<path fill="#FFFFFF" stroke="#FFFFFF" stroke-width="0.3" stroke-miterlimit="10" d="M538.805,94.008h9.734v1.145h-8.392v5.095
	h7.858v1.146h-7.858v5.567h8.49v1.146h-9.833V94.008z"/>
<path fill="#FFFFFF" stroke="#FFFFFF" stroke-width="0.3" stroke-miterlimit="10" d="M555.493,103.466
	c-0.06,2.902,2.032,3.791,4.601,3.791c1.48,0,3.731-0.81,3.731-2.863c0-1.6-1.601-2.231-2.902-2.547l-3.14-0.771
	c-1.658-0.414-3.179-1.204-3.179-3.396c0-1.382,0.889-3.968,4.857-3.968c2.784,0,5.231,1.5,5.212,4.383h-1.342
	c-0.079-2.152-1.856-3.238-3.852-3.238c-1.836,0-3.533,0.711-3.533,2.804c0,1.323,0.987,1.876,2.131,2.152l3.437,0.85
	c1.995,0.532,3.653,1.401,3.653,3.712c0,0.967-0.395,4.027-5.391,4.027c-3.337,0-5.785-1.5-5.627-4.936H555.493z"/>
<path fill="#FFFFFF" stroke="#FFFFFF" stroke-width="0.3" stroke-miterlimit="10" d="M570.562,94.008h1.344v14.098h-1.344V94.008z"
	/>
<path fill="#FFFFFF" stroke="#FFFFFF" stroke-width="0.3" stroke-miterlimit="10" d="M590.447,108.105h-0.969l-0.178-2.566h-0.039
	c-0.947,2.014-2.844,2.862-4.877,2.862c-4.443,0-6.654-3.494-6.654-7.345s2.211-7.345,6.654-7.345c2.962,0,5.371,1.599,5.883,4.679
	h-1.342c-0.178-1.619-1.855-3.534-4.541-3.534c-3.732,0-5.311,3.12-5.311,6.2s1.578,6.2,5.311,6.2c3.12,0,4.937-2.192,4.877-5.174
	h-4.799v-1.145h5.984V108.105z"/>
<path fill="#FFFFFF" stroke="#FFFFFF" stroke-width="0.3" stroke-miterlimit="10" d="M597.758,94.008h1.5l8.214,11.926h0.04V94.008
	h1.342v14.098h-1.5L599.14,96.18h-0.04v11.926h-1.342V94.008z"/>
<path fill="#FFFFFF" stroke="#FFFFFF" stroke-width="0.3" stroke-miterlimit="10" d="M616.422,94.008h9.734v1.145h-8.393v5.095
	h7.859v1.146h-7.859v5.567h8.491v1.146h-9.833V94.008z"/>
<path fill="#FFFFFF" stroke="#FFFFFF" stroke-width="0.3" stroke-miterlimit="10" d="M632.874,94.008h6.456
	c2.33,0,4.285,1.125,4.285,3.672c0,1.777-0.929,3.238-2.746,3.594v0.04c1.838,0.236,2.371,1.5,2.47,3.179
	c0.058,0.968,0.058,2.902,0.651,3.613h-1.48c-0.336-0.553-0.336-1.6-0.376-2.191c-0.118-1.975-0.276-4.166-2.823-4.067h-5.094v6.259
	h-1.343V94.008z M634.217,100.701h5.015c1.638,0,3.041-1.026,3.041-2.744s-1.026-2.805-3.041-2.805h-5.015V100.701z"/>
<path fill="#FFFFFF" stroke="#FFFFFF" stroke-width="0.3" stroke-miterlimit="10" d="M650.627,103.466
	c-0.059,2.902,2.034,3.791,4.602,3.791c1.48,0,3.73-0.81,3.73-2.863c0-1.6-1.599-2.231-2.902-2.547l-3.139-0.771
	c-1.658-0.414-3.178-1.204-3.178-3.396c0-1.382,0.887-3.968,4.855-3.968c2.785,0,5.233,1.5,5.213,4.383h-1.342
	c-0.079-2.152-1.857-3.238-3.85-3.238c-1.836,0-3.535,0.711-3.535,2.804c0,1.323,0.986,1.876,2.132,2.152l3.435,0.85
	c1.996,0.532,3.654,1.401,3.654,3.712c0,0.967-0.395,4.027-5.391,4.027c-3.338,0-5.785-1.5-5.627-4.936H650.627z"/>
<path fill="#FFFFFF" d="M709.229,70.045c5.415,1.305,12.031,2.006,17.146,2.006c12.838,0,19.756-5.816,19.756-14.541
	c0-18.354-28.277-11.535-28.277-22.865c0-4.514,2.605-7.725,10.229-7.725c7.32,0,9.929,1.907,9.929,11.031h5.214V24.414
	c-4.615-1.506-9.729-2.307-14.541-2.307c-13.438,0-19.655,5.617-19.655,14.239c0,17.249,28.28,10.03,28.28,22.366
	c0,5.516-3.711,8.527-11.333,8.527c-9.429,0-10.13-2.811-10.933-12.041h-5.814V70.045z M688.669,57.309
	c-1.203,6.82-5.815,9.932-11.534,9.932c-7.92,0-12.533-6.018-12.633-19.861h31.989v-5.717c0-13.839-8.724-19.555-19.153-19.555
	c-13.438,0-21.662,8.625-21.662,24.971c0,17.352,7.523,24.973,21.362,24.973c10.33,0,17.146-4.512,18.652-14.742H688.669z
	 M664.502,42.564c0.401-9.626,4.713-15.645,12.536-15.645c7.12,0,10.932,5.718,11.03,15.645H664.502z M622.172,27.823h4.914
	c3.811,0,4.514,2.308,4.514,4.913V60.82c0,3.51-1.605,5.816-6.619,5.816h-2.809v4.211h26.476v-4.211h-2.007
	c-5.014,0-6.619-2.307-6.619-5.816V22.508c-5.312,0.504-13.938,0.803-17.85,0.803V27.823z M574.356,27.823h4.911
	c3.813,0,4.516,2.308,4.516,4.913V60.82c0,3.51-1.604,5.816-6.621,5.816h-2.806v4.211h28.478v-4.211h-4.009
	c-5.014,0-6.619-2.307-6.619-5.816V44.271c0-11.936,6.921-15.547,10.628-15.547c3.613,0,5.72,2.508,6.621,7.021h5.215V22.908
	c-1.805-0.198-4.413-0.4-7.123-0.4c-7.819,0-12.33,2.808-15.942,10.13h-0.2v-10.13c-4.512,0.504-13.137,0.803-17.048,0.803V27.823z
	 M555.302,47.078c0,14.145-4.112,20.162-13.336,20.162c-9.228,0-13.339-6.018-13.339-20.162c0-14.14,4.111-20.158,13.339-20.158
	C551.189,26.92,555.302,32.938,555.302,47.078 M519.399,47.078c0,17.754,10.531,24.973,22.566,24.973
	c12.032,0,22.563-7.219,22.563-24.973c0-17.75-10.531-24.971-22.563-24.971C529.931,22.107,519.399,29.328,519.399,47.078
	 M487.812,36.146c0,5.316-0.401,18.151-0.401,23.066c0,9.027,4.213,12.838,12.537,12.838c8.825,0,13.436-4.01,13.436-14.844h-6.217
	c-0.2,7.123-2.005,9.631-5.717,9.631c-3.208,0-5.214-1.506-5.214-9.23V27.823h12.938v-4.513h-12.938V9.972h-5.817
	c-0.602,8.926-2.004,13.339-11.331,13.339v4.513h8.725V36.146z M435.665,70.045c5.413,1.305,12.034,2.006,17.15,2.006
	c12.833,0,19.755-5.816,19.755-14.541c0-18.354-28.28-11.535-28.28-22.865c0-4.514,2.605-7.725,10.229-7.725
	c7.317,0,9.929,1.907,9.929,11.031h5.213V24.414c-4.613-1.506-9.727-2.307-14.541-2.307c-13.438,0-19.656,5.617-19.656,14.239
	c0,17.249,28.281,10.03,28.281,22.366c0,5.516-3.711,8.527-11.332,8.527c-9.425,0-10.128-2.811-10.932-12.041h-5.815V70.045z
	 M373.873,70.848h25.873v-4.211h-3.41c-3.108,0-4.615-1.203-4.615-5.717V37.049c0-10.328-5.614-14.941-15.542-14.941
	c-5.817,0-11.835,1.807-15.345,7.821h-0.301v-7.421c-4.913,0.504-13.537,0.803-17.446,0.803v4.513h4.911
	c3.811,0,4.514,2.308,4.514,4.913V60.82c0,3.51-1.604,5.816-6.619,5.816h-2.806v4.211h26.473v-4.211h-2.006
	c-5.014,0-6.619-2.307-6.619-5.816V43.569c0-8.726,3.71-16.245,12.838-16.245c6.416,0,9.525,3.908,9.525,13.537v19.758
	c0,4.914-2.007,6.018-5.014,6.018h-4.411V70.848z M256.522,70.045c5.417,1.305,12.037,2.006,17.15,2.006
	c12.835,0,19.754-5.816,19.754-14.541c0-18.354-28.279-11.535-28.279-22.865c0-4.514,2.608-7.725,10.229-7.725
	c7.323,0,9.927,1.907,9.927,11.031h5.215V24.414c-4.61-1.506-9.725-2.307-14.542-2.307c-13.437,0-19.651,5.617-19.651,14.239
	c0,17.249,28.277,10.03,28.277,22.366c0,5.516-3.71,8.527-11.33,8.527c-9.427,0-10.129-2.811-10.933-12.041h-5.817V70.045z
	 M235.966,57.309c-1.203,6.82-5.817,9.932-11.531,9.932c-7.927,0-12.538-6.018-12.64-19.861h31.993v-5.717
	c0-13.839-8.725-19.555-19.154-19.555c-13.44,0-21.663,8.625-21.663,24.971c0,17.352,7.522,24.973,21.362,24.973
	c10.329,0,17.149-4.512,18.651-14.742H235.966z M211.795,42.564c0.404-9.626,4.713-15.645,12.538-15.645
	c7.119,0,10.931,5.718,11.03,15.645H211.795z M168.478,70.848h25.873v-4.211h-3.41c-3.107,0-4.616-1.203-4.616-5.717V37.049
	c0-10.328-5.613-14.941-15.541-14.941c-5.817,0-11.834,1.807-15.344,7.821h-0.302v-7.421c-4.912,0.504-13.538,0.803-17.449,0.803
	v4.513h4.913c3.812,0,4.516,2.308,4.516,4.913V60.82c0,3.51-1.606,5.816-6.62,5.816h-2.809v4.211h26.476v-4.211h-2.006
	c-5.014,0-6.619-2.307-6.619-5.816V43.569c0-8.726,3.711-16.245,12.837-16.245c6.418,0,9.527,3.908,9.527,13.537v19.758
	c0,4.914-2.007,6.018-5.017,6.018h-4.409V70.848z M119.838,47.078c0,14.145-4.11,20.162-13.338,20.162
	c-9.225,0-13.335-6.018-13.335-20.162c0-14.14,4.11-20.158,13.335-20.158C115.728,26.92,119.838,32.938,119.838,47.078
	 M83.938,47.078c0,17.754,10.528,24.973,22.562,24.973c12.035,0,22.563-7.219,22.563-24.973c0-17.75-10.528-24.971-22.563-24.971
	C94.466,22.107,83.938,29.328,83.938,47.078 M52.347,36.146c0,5.316-0.399,18.151-0.399,23.066c0,9.027,4.212,12.838,12.535,12.838
	c8.826,0,13.438-4.01,13.438-14.844h-6.215c-0.204,7.123-2.009,9.631-5.722,9.631c-3.205,0-5.212-1.506-5.212-9.23V27.823h12.936
	v-4.513H60.772V9.972h-5.817c-0.599,8.926-2.006,13.339-11.333,13.339v4.513h8.725V36.146z M0.201,70.045
	c5.416,1.305,12.036,2.006,17.148,2.006c12.834,0,19.755-5.816,19.755-14.541c0-18.354-28.279-11.535-28.279-22.865
	c0-4.514,2.606-7.725,10.229-7.725c7.32,0,9.929,1.907,9.929,11.031h5.215V24.414c-4.613-1.506-9.728-2.307-14.539-2.307
	C6.217,22.107,0,27.725,0,36.347c0,17.249,28.283,10.03,28.283,22.366c0,5.516-3.715,8.527-11.334,8.527
	c-9.426,0-10.129-2.811-10.932-12.041H0.201V70.045z"/>
<path fill="#FFFFFF" d="M628.626,6.485c0,4.128,2.162,6.487,5.8,6.487c3.635,0,5.799-2.359,5.799-6.487
	c0-4.126-2.164-6.485-5.799-6.485C630.788,0,628.626,2.359,628.626,6.485"/>
<path fill="#FFFFFF" d="M334.047,35.48l-8.43-17.958c-1.305-2.708-1.707-3.612-1.707-4.313c0-2.007,1.305-2.809,5.623-2.809
	c3.51,0,4.611,1.404,5.314,5.117l3.712,19.963H334.047z"/>
<path fill="#FFFFFF" d="M404.367,35.48l-8.43-17.958c-1.305-2.708-1.707-3.612-1.707-4.313c0-2.007,1.305-2.809,5.623-2.809
	c3.51,0,4.611,1.404,5.314,5.117l3.712,19.963H404.367z"/>
</svg>
