<?xml version="1.0" encoding="utf-8"?>
<!-- Generator: Adobe Illustrator 15.0.2, SVG Export Plug-In  -->
<!DOCTYPE svg PUBLIC "-//W3C//DTD SVG 1.1//EN" "http://www.w3.org/Graphics/SVG/1.1/DTD/svg11.dtd" [
	<!ENTITY ns_flows "http://ns.adobe.com/Flows/1.0/">
]>
<svg version="1.1"
	 xmlns="http://www.w3.org/2000/svg" xmlns:xlink="http://www.w3.org/1999/xlink" xmlns:a="http://ns.adobe.com/AdobeSVGViewerExtensions/3.0/"
	 x="0px" y="0px" width="800px" height="125px" viewBox="-26.719 -6.701 800 125" enable-background="new -26.719 -6.701 800 125"
	 xml:space="preserve">
<defs>
</defs>
<text transform="matrix(1 0 0 1 80.6855 108.1055)"><tspan x="0" y="0" stroke="#FFFFFF" stroke-width="0.3" stroke-miterlimit="10" font-family="'HelveticaNeue-Light'" font-size="19.75" letter-spacing="4">a</tspan><tspan x="17.183" y="0" stroke="#FFFFFF" stroke-width="0.3" stroke-miterlimit="10" font-family="'HelveticaNeue-Light'" font-size="19.75" letter-spacing="4">n</tspan><tspan x="35.432" y="0" stroke="#FFFFFF" stroke-width="0.3" stroke-miterlimit="10" font-family="'HelveticaNeue-Light'" font-size="19.75" letter-spacing="4">dr</tspan><tspan x="71.613" y="0" stroke="#FFFFFF" stroke-width="0.3" stroke-miterlimit="10" font-family="'HelveticaNeue-Light'" font-size="19.75" letter-spacing="4">e</tspan><tspan x="87.67" y="0" stroke="#FFFFFF" stroke-width="0.3" stroke-miterlimit="10" font-family="'HelveticaNeue-Light'" font-size="19.75" letter-spacing="4">as h</tspan><tspan x="150.908" y="0" stroke="#FFFFFF" stroke-width="0.3" stroke-miterlimit="10" font-family="'HelveticaNeue-Light'" font-size="19.75" letter-spacing="4">el</tspan><tspan x="181.915" y="0" stroke="#FFFFFF" stroke-width="0.3" stroke-miterlimit="10" font-family="'HelveticaNeue-Light'" font-size="19.75" letter-spacing="4">ler</tspan><tspan x="231.625" y="0" stroke="#FFFFFF" stroke-width="0.3" stroke-miterlimit="10" font-family="'HelveticaNeue-Light'" font-size="19.75" letter-spacing="6"> </tspan><tspan x="243.436" y="0" stroke="#FFFFFF" stroke-width="0.3" stroke-miterlimit="10" font-family="'HelveticaNeue-Light'" font-size="19.75" letter-spacing="4">architects</tspan><tspan x="408.663" y="0" stroke="#FFFFFF" stroke-width="0.3" stroke-miterlimit="10" font-family="'HelveticaNeue-Light'" font-size="19.75" letter-spacing="1"> </tspan><tspan x="416.129" y="0" stroke="#FFFFFF" stroke-width="0.3" stroke-miterlimit="10" font-family="'HelveticaNeue-Light'" font-size="19.75" letter-spacing="2">&amp;</tspan><tspan x="430.565" y="0" stroke="#FFFFFF" stroke-width="0.3" stroke-miterlimit="10" font-family="'HelveticaNeue-Light'" font-size="19.75" letter-spacing="3"> </tspan><tspan x="439.216" y="0" stroke="#FFFFFF" stroke-width="0.3" stroke-miterlimit="10" font-family="'HelveticaNeue-Light'" font-size="19.75" letter-spacing="3">d</tspan><tspan x="456.694" y="0" stroke="#FFFFFF" stroke-width="0.3" stroke-miterlimit="10" font-family="'HelveticaNeue-Light'" font-size="19.75" letter-spacing="4">e</tspan><tspan x="472.751" y="0" stroke="#FFFFFF" stroke-width="0.3" stroke-miterlimit="10" font-family="'HelveticaNeue-Light'" font-size="19.75" letter-spacing="3">s</tspan><tspan x="488.354" y="0" stroke="#FFFFFF" stroke-width="0.3" stroke-miterlimit="10" font-family="'HelveticaNeue-Light'" font-size="19.75" letter-spacing="3">i</tspan><tspan x="496.293" y="0" stroke="#FFFFFF" stroke-width="0.3" stroke-miterlimit="10" font-family="'HelveticaNeue-Light'" font-size="19.75" letter-spacing="4">gne</tspan><tspan x="550.763" y="0" stroke="#FFFFFF" stroke-width="0.3" stroke-miterlimit="10" font-family="'HelveticaNeue-Light'" font-size="19.75" letter-spacing="3">r</tspan><tspan x="567.886" y="0" stroke="#FFFFFF" stroke-width="0.3" stroke-miterlimit="10" font-family="'HelveticaNeue-Light'" font-size="19.75" letter-spacing="4">s</tspan></text>
<path fill="#231F20" d="M709.229,70.045c5.415,1.305,12.031,2.006,17.146,2.006c12.838,0,19.756-5.816,19.756-14.541
	c0-18.354-28.277-11.535-28.277-22.865c0-4.514,2.605-7.725,10.229-7.725c7.32,0,9.929,1.907,9.929,11.031h5.214V24.414
	c-4.615-1.506-9.729-2.307-14.541-2.307c-13.438,0-19.655,5.617-19.655,14.239c0,17.249,28.28,10.03,28.28,22.366
	c0,5.516-3.711,8.527-11.333,8.527c-9.429,0-10.13-2.811-10.933-12.041h-5.814V70.045z M688.669,57.309
	c-1.203,6.82-5.815,9.932-11.534,9.932c-7.92,0-12.533-6.018-12.633-19.861h31.989v-5.717c0-13.839-8.724-19.555-19.153-19.555
	c-13.438,0-21.662,8.625-21.662,24.971c0,17.352,7.523,24.973,21.362,24.973c10.33,0,17.146-4.512,18.652-14.742H688.669z
	 M664.502,42.564c0.401-9.626,4.713-15.645,12.536-15.645c7.12,0,10.932,5.718,11.03,15.645H664.502z M622.172,27.823h4.914
	c3.811,0,4.514,2.308,4.514,4.913V60.82c0,3.51-1.605,5.816-6.619,5.816h-2.809v4.211h26.476v-4.211h-2.007
	c-5.014,0-6.619-2.307-6.619-5.816V22.508c-5.312,0.504-13.938,0.803-17.85,0.803V27.823z M574.356,27.823h4.911
	c3.813,0,4.516,2.308,4.516,4.913V60.82c0,3.51-1.604,5.816-6.621,5.816h-2.806v4.211h28.478v-4.211h-4.009
	c-5.014,0-6.619-2.307-6.619-5.816V44.271c0-11.936,6.921-15.547,10.628-15.547c3.613,0,5.72,2.508,6.621,7.021h5.215V22.908
	c-1.805-0.198-4.413-0.4-7.123-0.4c-7.819,0-12.33,2.808-15.942,10.13h-0.2v-10.13c-4.512,0.504-13.137,0.803-17.048,0.803V27.823z
	 M555.302,47.078c0,14.145-4.112,20.162-13.336,20.162c-9.228,0-13.339-6.018-13.339-20.162c0-14.14,4.111-20.158,13.339-20.158
	C551.189,26.92,555.302,32.938,555.302,47.078 M519.399,47.078c0,17.754,10.531,24.973,22.566,24.973
	c12.032,0,22.563-7.219,22.563-24.973c0-17.75-10.531-24.971-22.563-24.971C529.931,22.107,519.399,29.328,519.399,47.078
	 M487.812,36.146c0,5.316-0.401,18.151-0.401,23.066c0,9.027,4.213,12.838,12.537,12.838c8.825,0,13.436-4.01,13.436-14.844h-6.217
	c-0.2,7.123-2.005,9.631-5.717,9.631c-3.208,0-5.214-1.506-5.214-9.23V27.823h12.938v-4.513h-12.938V9.972h-5.817
	c-0.602,8.926-2.004,13.339-11.331,13.339v4.513h8.725V36.146z M435.665,70.045c5.413,1.305,12.034,2.006,17.15,2.006
	c12.833,0,19.755-5.816,19.755-14.541c0-18.354-28.28-11.535-28.28-22.865c0-4.514,2.605-7.725,10.229-7.725
	c7.317,0,9.929,1.907,9.929,11.031h5.213V24.414c-4.613-1.506-9.727-2.307-14.541-2.307c-13.438,0-19.656,5.617-19.656,14.239
	c0,17.249,28.281,10.03,28.281,22.366c0,5.516-3.711,8.527-11.332,8.527c-9.425,0-10.128-2.811-10.932-12.041h-5.815V70.045z
	 M373.873,70.848h25.873v-4.211h-3.41c-3.108,0-4.615-1.203-4.615-5.717V37.049c0-10.328-5.614-14.941-15.542-14.941
	c-5.817,0-11.835,1.807-15.345,7.821h-0.301v-7.421c-4.913,0.504-13.537,0.803-17.446,0.803v4.513h4.911
	c3.811,0,4.514,2.308,4.514,4.913V60.82c0,3.51-1.604,5.816-6.619,5.816h-2.806v4.211h26.473v-4.211h-2.006
	c-5.014,0-6.619-2.307-6.619-5.816V43.569c0-8.726,3.71-16.245,12.838-16.245c6.416,0,9.525,3.908,9.525,13.537v19.758
	c0,4.914-2.007,6.018-5.014,6.018h-4.411V70.848z M256.522,70.045c5.417,1.305,12.037,2.006,17.15,2.006
	c12.835,0,19.754-5.816,19.754-14.541c0-18.354-28.279-11.535-28.279-22.865c0-4.514,2.608-7.725,10.229-7.725
	c7.323,0,9.927,1.907,9.927,11.031h5.215V24.414c-4.61-1.506-9.725-2.307-14.542-2.307c-13.437,0-19.651,5.617-19.651,14.239
	c0,17.249,28.277,10.03,28.277,22.366c0,5.516-3.71,8.527-11.33,8.527c-9.427,0-10.129-2.811-10.933-12.041h-5.817V70.045z
	 M235.966,57.309c-1.203,6.82-5.817,9.932-11.531,9.932c-7.927,0-12.538-6.018-12.64-19.861h31.993v-5.717
	c0-13.839-8.725-19.555-19.154-19.555c-13.44,0-21.663,8.625-21.663,24.971c0,17.352,7.522,24.973,21.362,24.973
	c10.329,0,17.149-4.512,18.651-14.742H235.966z M211.795,42.564c0.404-9.626,4.713-15.645,12.538-15.645
	c7.119,0,10.931,5.718,11.03,15.645H211.795z M168.478,70.848h25.873v-4.211h-3.41c-3.107,0-4.616-1.203-4.616-5.717V37.049
	c0-10.328-5.613-14.941-15.541-14.941c-5.817,0-11.834,1.807-15.344,7.821h-0.302v-7.421c-4.912,0.504-13.538,0.803-17.449,0.803
	v4.513h4.913c3.812,0,4.516,2.308,4.516,4.913V60.82c0,3.51-1.606,5.816-6.62,5.816h-2.809v4.211h26.476v-4.211h-2.006
	c-5.014,0-6.619-2.307-6.619-5.816V43.569c0-8.726,3.711-16.245,12.837-16.245c6.418,0,9.527,3.908,9.527,13.537v19.758
	c0,4.914-2.007,6.018-5.017,6.018h-4.409V70.848z M119.838,47.078c0,14.145-4.11,20.162-13.338,20.162
	c-9.225,0-13.335-6.018-13.335-20.162c0-14.14,4.11-20.158,13.335-20.158C115.728,26.92,119.838,32.938,119.838,47.078
	 M83.938,47.078c0,17.754,10.528,24.973,22.562,24.973c12.035,0,22.563-7.219,22.563-24.973c0-17.75-10.528-24.971-22.563-24.971
	C94.466,22.107,83.938,29.328,83.938,47.078 M52.347,36.146c0,5.316-0.399,18.151-0.399,23.066c0,9.027,4.212,12.838,12.535,12.838
	c8.826,0,13.438-4.01,13.438-14.844h-6.215c-0.204,7.123-2.009,9.631-5.722,9.631c-3.205,0-5.212-1.506-5.212-9.23V27.823h12.936
	v-4.513H60.772V9.972h-5.817c-0.599,8.926-2.006,13.339-11.333,13.339v4.513h8.725V36.146z M0.201,70.045
	c5.416,1.305,12.036,2.006,17.148,2.006c12.834,0,19.755-5.816,19.755-14.541c0-18.354-28.279-11.535-28.279-22.865
	c0-4.514,2.606-7.725,10.229-7.725c7.32,0,9.929,1.907,9.929,11.031h5.215V24.414c-4.613-1.506-9.728-2.307-14.539-2.307
	C6.217,22.107,0,27.725,0,36.347c0,17.249,28.283,10.03,28.283,22.366c0,5.516-3.715,8.527-11.334,8.527
	c-9.426,0-10.129-2.811-10.932-12.041H0.201V70.045z"/>
<path fill="#231F20" d="M628.626,6.485c0,4.128,2.162,6.487,5.8,6.487c3.635,0,5.799-2.359,5.799-6.487
	c0-4.126-2.164-6.485-5.799-6.485C630.788,0,628.626,2.359,628.626,6.485"/>
<path fill="#231F20" d="M334.047,35.48l-8.429-17.958c-1.305-2.708-1.707-3.612-1.707-4.313c0-2.007,1.305-2.809,5.621-2.809
	c3.511,0,4.613,1.404,5.315,5.117l3.712,19.963H334.047z"/>
<path fill="#231F20" d="M402.301,35.48l8.429-17.958c1.305-2.708,1.707-3.612,1.707-4.313c0-2.007-1.305-2.809-5.621-2.809
	c-3.511,0-4.613,1.404-5.315,5.117l-3.712,19.963H402.301z"/>
</svg>
